#Comment line ignore any data following # character 
#Hierarchical Translation and Rotation (.htr) file 
[Header]	
#Header keywords are followed by a single value 
FileType HTR		#Single word string
DataType HTRS		#Translation followed by rotation and scale data
FileVersion 1		#integer
NumSegments 84		#integer
NumFrames 2		#integer
DataFrameRate 30		#integer, data frame rate in this file
EulerRotationOrder ZYX
CalibrationUnits mm
RotationUnits Degrees
GlobalAxisofGravity Y
BoneLengthAxis Y
ScaleFactor 1.00
[SegmentNames&Hierarchy]
#CHILD	PARENT
MASTER GLOBAL
root MASTER
chest root
L_mid_tent01 root
R_mid_tent01 root
spine01 root
Bip01_Neck chest
L_humerus chest
R_humerus chest
weapon_bone chest
Bip01_Head Bip01_Neck
eye_left_bone Bip01_Head
eye_right_bone Bip01_Head
L_forearm L_humerus
L_front_hand L_forearm
L_weapon_bone L_forearm
L_front_hand01_01 L_front_hand
L_front_hand02_01 L_front_hand
L_front_hand03_01 L_front_hand
L_front_hand01_02 L_front_hand01_01
L_front_hand02_02 L_front_hand02_01
L_front_hand03_02 L_front_hand03_01
R_forearm R_humerus
R_front_hand R_forearm
R_weapon_bone R_forearm
R_front_hand01_01 R_front_hand
R_front_hand02_01 R_front_hand
R_front_hand03_01 R_front_hand
R_front_hand01_02 R_front_hand01_01
R_front_hand02_02 R_front_hand02_01
R_front_hand03_02 R_front_hand03_01
null_rope01_connect L_mid_tent01
Rope1_Seg01 null_rope01_connect
Rope1_Seg02 Rope1_Seg01
Rope1_Seg03 Rope1_Seg02
Rope1_Seg04 Rope1_Seg03
Rope1_Seg05 Rope1_Seg04
Rope1_Seg06 Rope1_Seg05
Rope1_Seg07 Rope1_Seg06
Rope1_Seg09 Rope1_Seg07
L_mid_hand01 Rope1_Seg09
L_mid_hand02 Rope1_Seg09
L_mid_hand03 Rope1_Seg09
null_rope02_connect R_mid_tent01
Rope2_Seg01 null_rope02_connect
Rope2_Seg02 Rope2_Seg01
Rope2_Seg03 Rope2_Seg02
Rope2_Seg04 Rope2_Seg03
Rope2_Seg05 Rope2_Seg04
Rope2_Seg06 Rope2_Seg05
Rope2_Seg07 Rope2_Seg06
Rope2_Seg09 Rope2_Seg07
R_mid_hand01 Rope2_Seg09
R_mid_hand02 Rope2_Seg09
R_mid_hand03 Rope2_Seg09
spine02 spine01
spine03 spine02
pelvis spine03
null_rope03_connect pelvis
null_rope04_connect pelvis
Rope3_Seg01 null_rope03_connect
Rope3_Seg02 Rope3_Seg01
Rope3_Seg03 Rope3_Seg02
Rope3_Seg04 Rope3_Seg03
Rope3_Seg05 Rope3_Seg04
Rope3_Seg06 Rope3_Seg05
Rope3_Seg07 Rope3_Seg06
Rope3_Seg08 Rope3_Seg07
Rope3_Seg09 Rope3_Seg08
R_rear_hand01 Rope3_Seg09
R_rear_hand02 Rope3_Seg09
R_rear_hand03 Rope3_Seg09
Rope4_Seg01 null_rope04_connect
Rope4_Seg02 Rope4_Seg01
Rope4_Seg03 Rope4_Seg02
Rope4_Seg04 Rope4_Seg03
Rope4_Seg05 Rope4_Seg04
Rope4_Seg06 Rope4_Seg05
Rope4_Seg07 Rope4_Seg06
Rope4_Seg08 Rope4_Seg07
Rope4_Seg09 Rope4_Seg08
L_rear_hand01 Rope4_Seg09
L_rear_hand02 Rope4_Seg09
L_rear_hand03 Rope4_Seg09
[BasePosition]
#SegmentName Tx, Ty, Tz, Rx, Ry, Rz, BoneLength
MASTER 0.000000 0.000000 0.000000 -90.000000 0.000000 0.000000 10.000000 
root 0.000000 0.000000 0.000000 0.000000 0.000000 0.000000 10.000000 
chest 0.000000 0.000000 0.000000 0.000000 0.000000 0.000000 10.000000 
L_mid_tent01 0.000000 0.000000 0.000000 0.000000 0.000000 0.000000 10.000000 
R_mid_tent01 0.000000 0.000000 0.000000 0.000000 0.000000 0.000000 10.000000 
spine01 0.000000 0.000000 0.000000 0.000000 0.000000 0.000000 10.000000 
Bip01_Neck 0.000000 0.000000 0.000000 0.000000 0.000000 0.000000 10.000000 
L_humerus 0.000000 0.000000 0.000000 0.000000 0.000000 0.000000 10.000000 
R_humerus 0.000000 0.000000 0.000000 0.000000 0.000000 0.000000 10.000000 
weapon_bone 0.000000 0.000000 0.000000 0.000000 0.000000 0.000000 10.000000 
Bip01_Head 0.000000 0.000000 0.000000 0.000000 0.000000 0.000000 10.000000 
eye_left_bone 0.000000 0.000000 0.000000 0.000000 0.000000 0.000000 10.000000 
eye_right_bone 0.000000 0.000000 0.000000 0.000000 0.000000 0.000000 10.000000 
L_forearm 0.000000 0.000000 0.000000 0.000000 0.000000 0.000000 10.000000 
L_front_hand 0.000000 0.000000 0.000000 0.000000 0.000000 0.000000 10.000000 
L_weapon_bone 0.000000 0.000000 0.000000 0.000000 0.000000 0.000000 10.000000 
L_front_hand01_01 0.000000 0.000000 0.000000 0.000000 0.000000 0.000000 10.000000 
L_front_hand02_01 0.000000 0.000000 0.000000 0.000000 0.000000 0.000000 10.000000 
L_front_hand03_01 0.000000 0.000000 0.000000 0.000000 0.000000 0.000000 10.000000 
L_front_hand01_02 0.000000 0.000000 0.000000 0.000000 0.000000 0.000000 10.000000 
L_front_hand02_02 0.000000 0.000000 0.000000 0.000000 0.000000 0.000000 10.000000 
L_front_hand03_02 0.000000 0.000000 0.000000 0.000000 0.000000 0.000000 10.000000 
R_forearm 0.000000 0.000000 0.000000 0.000000 0.000000 0.000000 10.000000 
R_front_hand 0.000000 0.000000 0.000000 0.000000 0.000000 0.000000 10.000000 
R_weapon_bone 0.000000 0.000000 0.000000 0.000000 0.000000 0.000000 10.000000 
R_front_hand01_01 0.000000 0.000000 0.000000 0.000000 0.000000 0.000000 10.000000 
R_front_hand02_01 0.000000 0.000000 0.000000 0.000000 0.000000 0.000000 10.000000 
R_front_hand03_01 0.000000 0.000000 0.000000 0.000000 0.000000 0.000000 10.000000 
R_front_hand01_02 0.000000 0.000000 0.000000 0.000000 0.000000 0.000000 10.000000 
R_front_hand02_02 0.000000 0.000000 0.000000 0.000000 0.000000 0.000000 10.000000 
R_front_hand03_02 0.000000 0.000000 0.000000 0.000000 0.000000 0.000000 10.000000 
null_rope01_connect 0.000000 0.000000 0.000000 0.000000 0.000000 0.000000 10.000000 
Rope1_Seg01 0.000000 0.000000 0.000000 0.000000 0.000000 0.000000 10.000000 
Rope1_Seg02 0.000000 0.000000 0.000000 0.000000 0.000000 0.000000 10.000000 
Rope1_Seg03 0.000000 0.000000 0.000000 0.000000 0.000000 0.000000 10.000000 
Rope1_Seg04 0.000000 0.000000 0.000000 0.000000 0.000000 0.000000 10.000000 
Rope1_Seg05 0.000000 0.000000 0.000000 0.000000 0.000000 0.000000 10.000000 
Rope1_Seg06 0.000000 0.000000 0.000000 0.000000 0.000000 0.000000 10.000000 
Rope1_Seg07 0.000000 0.000000 0.000000 0.000000 0.000000 0.000000 10.000000 
Rope1_Seg09 0.000000 0.000000 0.000000 0.000000 0.000000 0.000000 10.000000 
L_mid_hand01 0.000000 0.000000 0.000000 0.000000 0.000000 0.000000 10.000000 
L_mid_hand02 0.000000 0.000000 0.000000 0.000000 0.000000 0.000000 10.000000 
L_mid_hand03 0.000000 0.000000 0.000000 0.000000 0.000000 0.000000 10.000000 
null_rope02_connect 0.000000 0.000000 0.000000 0.000000 0.000000 0.000000 10.000000 
Rope2_Seg01 0.000000 0.000000 0.000000 0.000000 0.000000 0.000000 10.000000 
Rope2_Seg02 0.000000 0.000000 0.000000 0.000000 0.000000 0.000000 10.000000 
Rope2_Seg03 0.000000 0.000000 0.000000 0.000000 0.000000 0.000000 10.000000 
Rope2_Seg04 0.000000 0.000000 0.000000 0.000000 0.000000 0.000000 10.000000 
Rope2_Seg05 0.000000 0.000000 0.000000 0.000000 0.000000 0.000000 10.000000 
Rope2_Seg06 0.000000 0.000000 0.000000 0.000000 0.000000 0.000000 10.000000 
Rope2_Seg07 0.000000 0.000000 0.000000 0.000000 0.000000 0.000000 10.000000 
Rope2_Seg09 0.000000 0.000000 0.000000 0.000000 0.000000 0.000000 10.000000 
R_mid_hand01 0.000000 0.000000 0.000000 0.000000 0.000000 0.000000 10.000000 
R_mid_hand02 0.000000 0.000000 0.000000 0.000000 0.000000 0.000000 10.000000 
R_mid_hand03 0.000000 0.000000 0.000000 0.000000 0.000000 0.000000 10.000000 
spine02 0.000000 0.000000 0.000000 0.000000 0.000000 0.000000 10.000000 
spine03 0.000000 0.000000 0.000000 0.000000 0.000000 0.000000 10.000000 
pelvis 0.000000 0.000000 0.000000 0.000000 0.000000 0.000000 10.000000 
null_rope03_connect 0.000000 0.000000 0.000000 0.000000 0.000000 0.000000 10.000000 
null_rope04_connect 0.000000 0.000000 0.000000 0.000000 0.000000 0.000000 10.000000 
Rope3_Seg01 0.000000 0.000000 0.000000 0.000000 0.000000 0.000000 10.000000 
Rope3_Seg02 0.000000 0.000000 0.000000 0.000000 0.000000 0.000000 10.000000 
Rope3_Seg03 0.000000 0.000000 0.000000 0.000000 0.000000 0.000000 10.000000 
Rope3_Seg04 0.000000 0.000000 0.000000 0.000000 0.000000 0.000000 10.000000 
Rope3_Seg05 0.000000 0.000000 0.000000 0.000000 0.000000 0.000000 10.000000 
Rope3_Seg06 0.000000 0.000000 0.000000 0.000000 0.000000 0.000000 10.000000 
Rope3_Seg07 0.000000 0.000000 0.000000 0.000000 0.000000 0.000000 10.000000 
Rope3_Seg08 0.000000 0.000000 0.000000 0.000000 0.000000 0.000000 10.000000 
Rope3_Seg09 0.000000 0.000000 0.000000 0.000000 0.000000 0.000000 10.000000 
R_rear_hand01 0.000000 0.000000 0.000000 0.000000 0.000000 0.000000 10.000000 
R_rear_hand02 0.000000 0.000000 0.000000 0.000000 0.000000 0.000000 10.000000 
R_rear_hand03 0.000000 0.000000 0.000000 0.000000 0.000000 0.000000 10.000000 
Rope4_Seg01 0.000000 0.000000 0.000000 0.000000 0.000000 0.000000 10.000000 
Rope4_Seg02 0.000000 0.000000 0.000000 0.000000 0.000000 0.000000 10.000000 
Rope4_Seg03 0.000000 0.000000 0.000000 0.000000 0.000000 0.000000 10.000000 
Rope4_Seg04 0.000000 0.000000 0.000000 0.000000 0.000000 0.000000 10.000000 
Rope4_Seg05 0.000000 0.000000 0.000000 0.000000 0.000000 0.000000 10.000000 
Rope4_Seg06 0.000000 0.000000 0.000000 0.000000 0.000000 0.000000 10.000000 
Rope4_Seg07 0.000000 0.000000 0.000000 0.000000 0.000000 0.000000 10.000000 
Rope4_Seg08 0.000000 0.000000 0.000000 0.000000 0.000000 0.000000 10.000000 
Rope4_Seg09 0.000000 0.000000 0.000000 0.000000 0.000000 0.000000 10.000000 
L_rear_hand01 0.000000 0.000000 0.000000 0.000000 0.000000 0.000000 10.000000 
L_rear_hand02 0.000000 0.000000 0.000000 0.000000 0.000000 0.000000 10.000000 
L_rear_hand03 0.000000 0.000000 0.000000 0.000000 0.000000 0.000000 10.000000 
#Beginning of Data. Separated by tabs
#Fr	Tx	Ty	Tz	Rx	Ry	Rz	SF
[MASTER]
22 -124.739441 2258.295898 1402.568970 0.001660 0.001660 0.001660 2661.326904
23 -122.956116 2268.540283 1290.744263 0.001660 0.001660 0.001660 2612.932129
[root]
22 -5.410644 371.458405 1084.771118 -96.613930 -31.934284 -87.166473 1146.620728
23 -0.132675 421.551483 1100.626953 -96.497589 -35.494141 -87.004013 1178.594604
[chest]
22 -84.512650 -34.090519 0.000000 -6.932533 -15.436330 145.686325 91.129311
23 -84.512650 -34.090519 0.000000 -8.672585 -21.010422 147.267944 91.129311
[L_mid_tent01]
22 27.299135 22.179203 -249.918716 -0.293774 18.192976 80.669502 252.381714
23 27.299137 22.179205 -249.918716 -0.302088 18.416258 80.336922 252.381714
[R_mid_tent01]
22 23.228794 24.509907 226.238495 132.265839 -39.015476 67.289635 228.744751
23 23.228794 24.509907 226.238495 129.757095 -40.395267 67.505577 228.744751
[spine01]
22 -0.361383 -0.195265 0.000000 -0.000001 -0.000007 22.052340 0.410763
23 -0.361383 -0.195265 0.000000 -0.000001 -0.000007 22.052340 0.410763
[Bip01_Neck]
22 165.484543 71.581718 0.000119 176.643677 -1.657967 43.431911 180.302734
23 165.484543 71.581718 0.000119 176.643677 -1.657967 43.431911 180.302734
[L_humerus]
22 -13.983130 -135.272980 -120.471481 171.391342 19.015070 -92.693840 181.680161
23 -13.983130 -135.272980 -120.471481 171.797592 12.269344 -91.536728 181.680161
[R_humerus]
22 -13.983309 -135.273102 125.287651 -176.707550 -6.015029 -86.234161 184.909012
23 -13.983309 -135.273102 125.287651 -176.841080 -2.401783 -85.892006 184.909012
[weapon_bone]
22 235.964890 -300.705902 0.000000 0.000000 -89.951546 -128.212341 382.234833
23 235.964890 -300.705902 0.000000 0.000000 -89.951546 -128.212341 382.234833
[Bip01_Head]
22 213.371887 185.864258 9.074973 4.962490 2.797846 -43.898743 283.117371
23 213.380905 185.845673 9.412742 4.962490 2.797846 -43.898743 283.122986
[eye_left_bone]
22 -24.626970 125.451866 -64.772606 0.000000 -90.000000 -99.840431 143.318359
23 -24.626970 125.451866 -64.772606 0.000000 -90.000000 -99.840431 143.318359
[eye_right_bone]
22 -24.626970 125.451866 64.327362 0.000000 -89.980217 80.156380 143.117676
23 -24.626970 125.451866 64.327362 0.000000 -89.965736 80.156380 143.117676
[L_forearm]
22 322.776093 0.000000 -0.000119 0.000388 -0.002315 -109.007423 322.776093
23 322.776093 0.000000 -0.000119 0.000382 -0.002316 -108.727753 322.776093
[L_front_hand]
22 241.149185 -0.042021 -3.300071 -115.936928 -1.837356 -27.421503 241.171753
23 241.149185 -0.042021 -3.300071 -142.964096 -1.836860 -27.421392 241.171753
[L_weapon_bone]
22 156.183838 0.000000 0.000000 0.000014 0.000007 0.000001 156.183838
23 156.183838 0.000000 0.000000 0.000014 0.000007 0.000001 156.183838
[L_front_hand01_01]
22 86.095154 20.947098 -0.655860 -0.365735 -0.477812 75.179466 88.609184
23 86.095154 20.947098 -0.655860 -0.366594 -0.477154 75.385574 88.609184
[L_front_hand02_01]
22 86.935165 -11.437475 24.513514 154.083481 -59.794338 -61.001266 91.046425
23 86.935165 -11.437475 24.513514 154.399796 -59.883835 -61.369587 91.046425
[L_front_hand03_01]
22 86.637497 -14.123976 -20.424902 -153.626984 58.028236 -62.364826 90.126129
23 86.637497 -14.123976 -20.424902 -153.913849 58.118122 -62.702866 90.126129
[L_front_hand01_02]
22 71.020905 -0.000179 0.000030 0.000254 -0.002333 -102.442802 71.020905
23 71.020905 -0.000179 0.000030 0.000245 -0.002334 -101.962189 71.020905
[L_front_hand02_02]
22 71.020927 -0.000119 0.000060 0.000254 -0.002333 -102.442802 71.020927
23 71.020927 -0.000119 0.000060 0.000245 -0.002334 -101.962189 71.020927
[L_front_hand03_02]
22 71.020905 -0.000060 0.000060 0.000254 -0.002333 -102.442802 71.020905
23 71.020905 -0.000060 0.000060 0.000245 -0.002334 -101.962189 71.020905
[R_forearm]
22 322.776428 -0.000060 0.000030 0.206125 0.062187 -108.026146 322.776428
23 322.776428 -0.000060 0.000030 0.206270 0.061703 -107.756981 322.776428
[R_front_hand]
22 238.847015 -0.006795 2.210259 58.427925 -10.645446 -26.313440 238.857239
23 238.847015 -0.006795 2.210259 96.706978 -10.645882 -26.314304 238.857239
[R_weapon_bone]
22 155.664093 0.002503 -0.000030 0.003487 0.001180 -90.988930 155.664078
23 155.664093 0.002503 -0.000030 0.003487 0.001180 -90.988930 155.664078
[R_front_hand01_01]
22 87.624611 14.231146 22.918642 -151.324280 -58.950283 57.901733 91.683487
23 87.624611 14.231146 22.918642 -148.772781 -58.049347 54.911018 91.683487
[R_front_hand02_01]
22 89.356956 14.367283 -19.491137 151.491165 57.310089 60.072716 92.579636
23 89.356956 14.367283 -19.491137 149.093567 56.416065 57.211163 92.579636
[R_front_hand03_01]
22 87.286232 -22.307278 -0.143439 0.146114 -0.432116 -73.578300 90.091743
23 87.286232 -22.307278 -0.143439 0.132384 -0.433256 -71.773155 90.091743
[R_front_hand01_02]
22 71.020905 0.000060 0.000119 0.002333 -0.000259 102.681450 71.020905
23 71.020905 0.000060 0.000119 0.002333 -0.000257 102.569511 71.020905
[R_front_hand02_02]
22 71.020844 -0.000030 -0.000119 0.002333 -0.000259 102.681450 71.020836
23 71.020844 -0.000030 -0.000119 0.002333 -0.000257 102.569511 71.020836
[R_front_hand03_02]
22 71.020905 0.000000 0.000030 0.002333 -0.000259 102.681450 71.020905
23 71.020905 0.000000 0.000030 0.002333 -0.000257 102.569511 71.020905
[null_rope01_connect]
22 328.732483 0.000000 -0.000238 -147.011230 -66.893425 -171.128326 328.732483
23 328.732483 0.000000 -0.000238 -143.197617 -67.044830 -171.045944 328.732483
[Rope1_Seg01]
22 -0.000017 0.000021 0.000068 104.017891 -32.144745 175.427216 0.000073
23 -0.000018 0.000020 0.000071 105.562675 -26.499527 173.730972 0.000076
[Rope1_Seg02]
22 139.999863 -0.000179 0.000000 1.271867 -5.977734 -5.896613 139.999863
23 139.999863 -0.000179 0.000000 2.235137 -3.703190 -10.493154 139.999863
[Rope1_Seg03]
22 139.999924 0.000060 -0.000060 2.997116 -11.370149 -10.996716 139.999924
23 139.999924 0.000060 -0.000060 8.401651 -9.415255 -20.539064 139.999924
[Rope1_Seg04]
22 139.999924 -0.000060 -0.000119 7.588193 -23.634848 -20.776812 139.999924
23 139.999924 -0.000060 -0.000119 15.431674 -16.229275 -23.524206 139.999924
[Rope1_Seg05]
22 139.999832 0.000119 -0.000060 4.549089 -18.824232 -16.682892 139.999832
23 139.999832 0.000119 -0.000060 44.553070 -9.407426 -55.497585 139.999832
[Rope1_Seg06]
22 139.999954 0.000119 -0.000060 15.607761 -28.609882 -39.774498 139.999954
23 139.999954 0.000119 -0.000060 45.638885 -33.718227 -35.900013 139.999954
[Rope1_Seg07]
22 139.999985 0.000060 0.000000 12.168909 -27.007816 -28.201435 139.999985
23 139.999985 0.000060 0.000000 3.328984 -9.552548 -0.554605 139.999985
[Rope1_Seg09]
22 121.602913 0.000119 -0.000089 -89.793175 -1.359789 0.847147 121.602913
23 121.602913 0.000119 -0.000089 -89.793175 -1.359789 0.847147 121.602913
[L_mid_hand01]
22 103.859421 1.038730 8.195221 127.696274 -66.076538 -35.766609 104.187431
23 103.859421 1.038730 8.195221 129.753723 -67.188766 -38.008968 104.187431
[L_mid_hand02]
22 105.572853 -4.139662 -10.864139 -167.140015 43.006081 -70.902893 106.211075
23 105.572853 -4.139662 -10.864139 -168.447937 43.306499 -72.811859 106.211075
[L_mid_hand03]
22 104.641464 17.579376 -3.913581 -6.629650 17.597923 72.871559 106.179977
23 104.641464 17.579376 -3.913581 -6.178542 17.755547 74.357048 106.179977
[null_rope02_connect]
22 328.732849 0.000179 -0.000119 -61.850124 29.596375 48.581814 328.732849
23 328.732849 0.000179 -0.000119 -57.567062 27.082418 47.688831 328.732849
[Rope2_Seg01]
22 0.000055 0.000084 0.000000 -50.143337 -26.524776 50.771111 0.000101
23 0.000056 0.000081 0.000000 -50.256374 -23.986048 52.390259 0.000099
[Rope2_Seg02]
22 139.999741 -0.000060 -0.000119 -0.116511 6.121318 -2.580223 139.999756
23 139.999741 -0.000060 -0.000119 0.804158 6.705329 1.772929 139.999756
[Rope2_Seg03]
22 140.000107 0.000030 0.000000 -0.825858 14.628323 -6.285473 140.000107
23 140.000107 0.000030 0.000000 0.564951 13.509195 3.450712 140.000107
[Rope2_Seg04]
22 139.999802 0.000000 -0.000060 -9.807341 41.861813 -21.940987 139.999802
23 139.999802 0.000000 -0.000060 -4.143167 31.039570 8.625990 139.999802
[Rope2_Seg05]
22 139.999985 -0.000060 0.000119 179.845261 40.947647 -20.547853 139.999985
23 139.999985 -0.000060 0.000119 -24.622864 36.972576 16.049889 139.999985
[Rope2_Seg06]
22 139.999893 -0.000030 -0.000119 -7.041477 -24.483093 15.089290 139.999893
23 139.999893 -0.000030 -0.000119 -35.090679 20.434824 26.418234 139.999893
[Rope2_Seg07]
22 139.999893 0.000060 -0.000060 -0.648539 -8.812175 4.313612 139.999893
23 139.999893 0.000060 -0.000060 -11.675570 -0.015860 13.622367 139.999893
[Rope2_Seg09]
22 121.338966 0.000089 -0.000060 33.793236 -1.359788 -0.847141 121.338966
23 121.338966 0.000089 -0.000060 33.793236 -1.359788 -0.847141 121.338966
[R_mid_hand01]
22 104.680779 11.144459 -10.335981 -26.991898 40.639954 54.704464 105.778534
23 104.680779 11.144459 -10.335981 -23.980095 42.262276 59.248196 105.778534
[R_mid_hand02]
22 104.070427 2.443552 8.231699 62.577366 -57.416584 24.150801 104.424065
23 104.070427 2.443552 8.231699 59.529949 -60.717201 27.702354 104.424065
[R_mid_hand03]
22 106.028137 -11.221827 -5.996406 -173.762711 14.561014 -63.787167 106.788818
23 106.028137 -11.221827 -5.996406 -174.753189 14.937831 -67.669342 106.788818
[spine02]
22 129.756927 0.001550 0.000119 0.526507 -4.025401 -15.339367 129.756927
23 129.756927 0.001550 0.000119 0.521592 -4.026049 -15.269289 129.756927
[spine03]
22 78.613991 0.081703 -4.898997 1.998393 3.782770 17.987198 78.766525
23 78.613983 0.081706 -4.898997 1.994126 3.784117 17.931971 78.766518
[pelvis]
22 169.435242 0.051022 0.000000 -0.070154 -0.177806 17.153118 169.435257
23 169.435242 0.051022 0.000000 -0.069994 -0.177869 17.050604 169.435257
[null_rope03_connect]
22 -1.257226 -2.466202 137.391083 -178.554276 -85.570526 -101.236992 137.418976
23 -1.257226 -2.466202 137.391083 -177.819046 -85.852066 -98.349892 137.418976
[null_rope04_connect]
22 -1.259640 -2.480268 -137.844437 -178.554276 -85.570526 -101.236992 137.872513
23 -1.259640 -2.480268 -137.844437 -177.819046 -85.852066 -98.349892 137.872513
[Rope3_Seg01]
22 0.000000 0.000000 0.000000 -138.843643 -77.204391 -82.141693 0.000000
23 0.000000 0.000000 0.000000 -29.478104 -87.136726 164.601593 0.000000
[Rope3_Seg02]
22 139.999924 -0.000119 0.000060 3.390561 -12.023694 -5.322302 139.999924
23 139.999924 -0.000119 0.000060 3.214262 -11.985735 -3.490262 139.999924
[Rope3_Seg03]
22 139.999924 -0.000119 0.000119 16.744883 -25.854403 -11.701423 139.999924
23 139.999924 -0.000119 0.000119 20.080910 -31.570627 -9.316135 139.999924
[Rope3_Seg04]
22 139.999924 0.000119 0.000000 43.908714 -30.190044 -8.454635 139.999924
23 139.999924 0.000119 0.000000 49.503910 -40.858829 -1.433099 139.999924
[Rope3_Seg05]
22 139.999924 -0.000238 0.000060 30.125940 -17.523481 22.957106 139.999924
23 139.999924 -0.000238 0.000060 15.313838 -8.151088 21.787680 139.999924
[Rope3_Seg06]
22 139.999893 -0.000119 -0.000060 11.243670 2.721284 58.423958 139.999893
23 139.999893 -0.000119 -0.000060 7.782610 5.897591 43.264141 139.999893
[Rope3_Seg07]
22 139.999771 0.000060 -0.000119 -1.627537 2.959200 19.102633 139.999771
23 139.999771 0.000060 -0.000119 -1.458495 3.508679 22.715607 139.999771
[Rope3_Seg08]
22 139.999985 -0.000060 0.000000 -1.071423 0.749435 6.328762 139.999985
23 139.999985 -0.000060 0.000000 -1.677068 0.965180 8.542846 139.999985
[Rope3_Seg09]
22 90.185997 -0.000179 -0.000060 89.793228 -1.359877 -0.847183 90.185997
23 90.185997 -0.000179 -0.000060 89.793228 -1.359877 -0.847183 90.185997
[R_rear_hand01]
22 103.366196 -6.073594 -10.757982 -172.436630 23.546103 -61.016514 104.101845
23 103.366196 -6.073594 -10.757982 -174.043228 23.976637 -65.002998 104.101845
[R_rear_hand02]
22 100.509819 12.039542 -7.992327 -20.870390 33.419476 58.329945 101.543350
23 100.509819 12.039542 -7.992327 -18.533085 34.659092 62.503902 101.543350
[R_rear_hand03]
22 101.539970 5.215704 5.435467 78.426208 -60.383141 13.958279 101.819031
23 101.539970 5.215704 5.435467 76.952385 -63.971771 15.629117 101.819031
[Rope4_Seg01]
22 0.000010 0.000038 -0.000114 154.951340 -73.766754 167.908569 0.000121
23 0.000010 0.000038 -0.000114 166.335907 -70.369087 158.267242 0.000121
[Rope4_Seg02]
22 139.999985 0.000060 0.000119 -3.613107 -4.038746 -7.630425 139.999985
23 139.999985 0.000060 0.000119 -4.640825 -4.913859 -8.681120 139.999985
[Rope4_Seg03]
22 139.999924 0.000000 -0.000238 -8.125160 -5.182954 -11.682946 139.999924
23 139.999924 0.000000 -0.000238 -11.474406 -6.003658 -13.471053 139.999924
[Rope4_Seg04]
22 139.999985 0.000000 0.000119 -25.513115 0.713513 -21.221174 139.999985
23 139.999985 0.000000 0.000119 -32.126549 1.386850 -22.213327 139.999985
[Rope4_Seg05]
22 139.999802 -0.000060 -0.000119 -23.018734 2.724905 -16.956379 139.999802
23 139.999802 -0.000060 -0.000119 -24.704168 1.022054 -16.038696 139.999802
[Rope4_Seg06]
22 139.999924 0.000000 0.000060 -44.564331 -16.663092 -24.385754 139.999924
23 139.999924 0.000000 0.000060 -52.239193 -9.461209 -26.092104 139.999924
[Rope4_Seg07]
22 139.999802 0.000000 0.000000 -66.878403 4.642778 -26.828184 139.999802
23 139.999802 0.000000 0.000000 -37.026871 13.439102 -17.147062 139.999802
[Rope4_Seg08]
22 139.999924 0.000000 0.000119 -9.429931 11.152078 -1.314907 139.999924
23 139.999924 0.000000 0.000119 -8.871182 10.500223 -2.244783 139.999924
[Rope4_Seg09]
22 90.185791 0.000060 0.000060 -135.617828 2.228885 0.850567 90.185791
23 90.185791 0.000060 0.000060 -135.617828 2.228885 0.850567 90.185791
[L_rear_hand01]
22 101.696655 -8.392275 -7.654577 -14.875789 -36.204914 111.195381 102.329041
23 101.696655 -8.392275 -7.654577 -13.808599 -36.569183 109.397408 102.329041
[L_rear_hand02]
22 102.726799 -1.568258 5.773216 73.822197 69.166573 160.967667 102.900848
23 102.726799 -1.568258 5.773216 72.647575 70.590675 159.713425 102.900848
[L_rear_hand03]
22 104.552910 9.721220 -10.420293 -176.448364 -24.423323 -109.138077 105.519653
23 104.552910 9.721220 -10.420293 -177.121979 -24.509386 -107.501076 105.519653
